<?xml version="1.0" encoding="UTF-8"?>
<svg id="Layer_1" xmlns="http://www.w3.org/2000/svg" version="1.1" viewBox="0 0 700 450">
  <!-- Generator: Adobe Illustrator 29.2.1, SVG Export Plug-In . SVG Version: 2.1.0 Build 116)  -->
  <defs>
    <style>
      .st0 {
        fill: none;
      }

      .st1 {
        fill: #92400e;
      }

      .st1, .st2, .st3, .st4, .st5, .st6, .st7, .st8, .st9, .st10 {
        isolation: isolate;
      }

      .st1, .st2, .st3, .st7, .st9 {
        font-family: Arial-BoldMT, Arial;
        font-weight: 700;
      }

      .st1, .st9 {
        font-size: 14px;
      }

      .st2 {
        font-size: 18px;
      }

      .st2, .st9 {
        fill: #1e3a8a;
      }

      .st3 {
        fill: #065f46;
        font-size: 16px;
      }

      .st4, .st5 {
        font-size: 11px;
      }

      .st4, .st5, .st6, .st10 {
        font-family: ArialMT, Arial;
      }

      .st4, .st6 {
        fill: #475569;
      }

      .st11 {
        fill: #fef3c7;
        stroke: #f59e0b;
      }

      .st11, .st12 {
        stroke-width: 2px;
      }

      .st13, .st7 {
        fill: #3b82f6;
      }

      .st5, .st10 {
        fill: #334155;
      }

      .st6, .st8 {
        font-size: 10px;
      }

      .st7 {
        font-size: 36px;
      }

      .st8 {
        fill: #6b7280;
        font-family: Arial-ItalicMT, Arial;
        font-style: italic;
      }

      .st12 {
        fill: #eff6ff;
        stroke: #3b82f6;
      }

      .st10 {
        font-size: 12px;
      }

      .st14 {
        fill: #f59e0b;
      }

      .st15 {
        fill: #f0fdf4;
        stroke: #10b981;
        stroke-width: 3px;
      }
    </style>
  </defs>
  <text class="st2" transform="translate(211 25)"><tspan x="0" y="0">Linear Referencing Components</tspan></text>
  <rect class="st12" x="50" y="60" width="200" height="100" rx="5" ry="5"/>
  <text class="st9" transform="translate(99.8 85)"><tspan x="0" y="0">Linear Element</tspan></text>
  <text class="st5" transform="translate(115.5 105)"><tspan x="0" y="0">(LinearExtent)</tspan></text>
  <text class="st6" transform="translate(105.5 130)"><tspan x="0" y="0">The geometric path:</tspan></text>
  <text class="st6" transform="translate(106.1 145)"><tspan x="0" y="0">borehole centerline,</tspan></text>
  <rect class="st11" x="450" y="60" width="200" height="100" rx="5" ry="5"/>
  <text class="st1" transform="translate(513.8 85)"><tspan x="0" y="0">LR Method</tspan></text>
  <text class="st5" transform="translate(521 105)"><tspan x="0" y="0">(LRMethod)</tspan></text>
  <text class="st6" transform="translate(510.3 130)"><tspan x="0" y="0">How positions are</tspan></text>
  <text class="st6" transform="translate(498.9 145)"><tspan x="0" y="0">measured &amp; units used</tspan></text>
  <text class="st7" transform="translate(339.5 120)"><tspan x="0" y="0">+</tspan></text>
  <path class="st0" d=""/>
  <polygon class="st13" points="165 195 150 225 135 195 165 195"/>
  <path class="st13" d="M150,210" marker-end="url(#arrowblue)"/>
  <path class="st0" d=""/>
  <polygon class="st14" points="565 195 550 225 535 195 565 195"/>
  <path class="st14" d="M550,210" marker-end="url(#arroworange)"/>
  <path class="st0" d=""/>
  <polygon class="st13" points="342.7 267.9 359.7 282.4 337.9 287.3 342.7 267.9"/>
  <path class="st13" d="M350,280" marker-end="url(#arrowblue)"/>
  <path class="st0" d=""/>
  <polygon class="st14" points="362.1 287.3 340.3 282.4 357.3 267.9 362.1 287.3"/>
  <path class="st14" d="M350,280" marker-end="url(#arroworange)"/>
  <rect class="st15" x="200" y="290" width="300" height="120" rx="5" ry="5"/>
  <text class="st3" transform="translate(225.9 320)"><tspan x="0" y="0">Linear Spatial Reference System</tspan></text>
  <text class="st10" transform="translate(317 340)"><tspan x="0" y="0">(LinearSRS)</tspan></text>
  <text class="st4" transform="translate(244.5 365)"><tspan x="0" y="0">Complete coordinate system for positioning</tspan></text>
  <text class="st4" transform="translate(293.7 382)"><tspan x="0" y="0">along the linear feature</tspan></text>
  <text class="st8" transform="translate(261.9 399)"><tspan x="0" y="0">Referenced via srsName atrtribut</tspan></text>
</svg>